<svg width="40" height="40" fill="none" xmlns="http://www.w3.org/2000/svg"><path d="M0 16c0-5.6 0-8.4 1.09-10.54a10 10 0 0 1 4.37-4.37C7.6 0 10.4 0 16 0h8c5.6 0 8.4 0 10.54 1.09a10 10 0 0 1 4.37 4.37C40 7.6 40 10.4 40 16v8c0 5.6 0 8.4-1.09 10.54a10.001 10.001 0 0 1-4.37 4.37C32.4 40 29.6 40 24 40h-8c-5.6 0-8.4 0-10.54-1.09a10 10 0 0 1-4.37-4.37C0 32.4 0 29.6 0 24v-8z" fill="#F9F8FC"/><path fill-rule="evenodd" clip-rule="evenodd" d="M13 11a2 2 0 0 0-2 2v4.182a2 2 0 0 0 2 2h4.182a2 2 0 0 0 2-2V13a2 2 0 0 0-2-2H13zm9.818 0a2 2 0 0 0-2 2v4.182a2 2 0 0 0 2 2H27a2 2 0 0 0 2-2V13a2 2 0 0 0-2-2h-4.182zm-2 11.818a2 2 0 0 1 2-2H27a2 2 0 0 1 2 2V27a2 2 0 0 1-2 2h-4.182a2 2 0 0 1-2-2v-4.182zm-7.818-2a2 2 0 0 0-2 2V27a2 2 0 0 0 2 2h4.182a2 2 0 0 0 2-2v-4.182a2 2 0 0 0-2-2H13z" fill="#103D97"/></svg>