<svg width="40" height="40" viewBox="0 0 40 40" fill="none" xmlns="http://www.w3.org/2000/svg">
<path d="M0 16C0 10.3995 0 7.59921 1.08993 5.46009C2.04867 3.57847 3.57847 2.04867 5.46009 1.08993C7.59921 0 10.3995 0 16 0H24C29.6005 0 32.4008 0 34.5399 1.08993C36.4215 2.04867 37.9513 3.57847 38.9101 5.46009C40 7.59921 40 10.3995 40 16V24C40 29.6005 40 32.4008 38.9101 34.5399C37.9513 36.4215 36.4215 37.9513 34.5399 38.9101C32.4008 40 29.6005 40 24 40H16C10.3995 40 7.59921 40 5.46009 38.9101C3.57847 37.9513 2.04867 36.4215 1.08993 34.5399C0 32.4008 0 29.6005 0 24V16Z" fill="#F9F8FC"/>
<path fill-rule="evenodd" clip-rule="evenodd" d="M13 11C11.8954 11 11 11.8954 11 13V17.1818C11 18.2864 11.8954 19.1818 13 19.1818H17.1818C18.2864 19.1818 19.1818 18.2864 19.1818 17.1818V13C19.1818 11.8954 18.2864 11 17.1818 11H13ZM22.8182 11C21.7136 11 20.8182 11.8954 20.8182 13V17.1818C20.8182 18.2864 21.7136 19.1818 22.8182 19.1818H27C28.1046 19.1818 29 18.2864 29 17.1818V13C29 11.8954 28.1046 11 27 11H22.8182ZM20.8182 22.8182C20.8182 21.7136 21.7136 20.8182 22.8182 20.8182H27C28.1046 20.8182 29 21.7136 29 22.8182V27C29 28.1046 28.1046 29 27 29H22.8182C21.7136 29 20.8182 28.1046 20.8182 27V22.8182ZM13 20.8182C11.8954 20.8182 11 21.7136 11 22.8182V27C11 28.1046 11.8954 29 13 29H17.1818C18.2864 29 19.1818 28.1046 19.1818 27V22.8182C19.1818 21.7136 18.2864 20.8182 17.1818 20.8182H13Z" fill="#103D97"/>
</svg>
